{
  "asset": {
    "generator": "Khronos glTF Blender I/O v1.7.33",
    "version": "2.0"
  },
  "scene": 0,
  "scenes": [
    {
      "name": "Scene",
      "nodes": [0, 1, 2, 3, 25]
    }
  ],
  "nodes": [
    {
      "name": "Armature.004"
    },
    {
      "name": "Armature.002"
    },
    {
      "name": "Armature.006"
    },
    {
      "name": "Armature.003"
    },
    {
      "name": "right.eye"
    },
    {
      "mesh": 0,
      "name": "Roundcube.002",
      "skin": 0
    },
    {
      "mesh": 1,
      "name": "Roundcube.003",
      "skin": 0
    },
    {
      "children": [5, 6, 4],
      "name": "Armature.001",
      "rotation": [0, 0, 0, 1],
      "translation": [
        -0.3731045722961426, 1.380242109298706, 0.005845546722412109
      ]
    },
    {
      "name": "left.eye",
      "translation": [
        0.4406256675720215, 1.103528380393982, -1.1696853637695312
      ]
    },
    {
      "mesh": 2,
      "name": "Roundcube.001",
      "skin": 1
    },
    {
      "mesh": 3,
      "name": "Roundcube.004",
      "skin": 1
    },
    {
      "children": [9, 10, 8],
      "name": "Armature.005",
      "rotation": [0, 0, 0, 1],
      "translation": [
        -0.05719780921936035, 0.2767137289047241, 1.1755309104919434
      ]
    },
    {
      "name": "Palm.L",
      "rotation": [
        0.03664107248187065, 0.007990342564880848, -0.01489456370472908,
        0.9991855621337891
      ],
      "scale": [0.9999999403953552, 1, 1.0000001192092896],
      "translation": [
        -3.164382178511005e-8, 0.34478458762168884, -5.3852357240202764e-8
      ]
    },
    {
      "name": "Thumb.L",
      "rotation": [
        -0.3194488286972046, 0.2430773377418518, 0.23487213253974915,
        0.8852688670158386
      ],
      "scale": [1, 1, 0.9999999403953552],
      "translation": [
        -1.2347915401278442e-7, 0.34478455781936646, 8.723490907414089e-8
      ]
    },
    {
      "children": [12, 13],
      "name": "Forearm.L",
      "rotation": [
        0.4125095009803772, 0.8269208669662476, 0.223496675491333,
        0.3099791705608368
      ],
      "translation": [
        1.3137378118699417e-7, 0.9147852659225464, -6.015979181483999e-8
      ]
    },
    {
      "children": [14],
      "name": "Root.L",
      "rotation": [
        -0.17481231689453125, -0.27785560488700867, -0.548311710357666,
        0.769149661064148
      ],
      "scale": [1, 1.0000001192092896, 1],
      "translation": [
        0.8695932030677795, -0.9461312294006348, 0.13943475484848022
      ]
    },
    {
      "name": "Palm.R",
      "rotation": [
        0.004426130559295416, -0.0225614495575428, 0.03930441662669182,
        0.9989627599716187
      ],
      "scale": [1, 0.9999999403953552, 1],
      "translation": [
        -3.482882249272734e-8, 0.34478476643562317, -8.076353452679541e-8
      ]
    },
    {
      "name": "Thumb.R",
      "rotation": [
        0.2553967535495758, 0.2550796568393707, -0.30329078435897827,
        0.8818852305412292
      ],
      "scale": [0.9999999403953552, 1.0000001192092896, 1],
      "translation": [
        4.476777704098822e-8, 0.34478485584259033, -8.772617832164542e-8
      ]
    },
    {
      "children": [16, 17],
      "name": "Forearm.R",
      "rotation": [
        0.35257261991500854, 0.08724600076675415, -0.30952736735343933,
        0.8787909746170044
      ],
      "scale": [1, 1, 0.9999999403953552],
      "translation": [
        1.0839166897369523e-8, 0.9147853255271912, 5.9174674049700116e-8
      ]
    },
    {
      "children": [18],
      "name": "Root.R",
      "rotation": [
        0.2549246549606323, -0.334112286567688, 0.5159637331962585,
        0.7464341521263123
      ],
      "scale": [0.9999999403953552, 0.9999998807907104, 1],
      "translation": [
        -0.7799246907234192, -0.9345052242279053, 0.10891124606132507
      ]
    },
    {
      "mesh": 4,
      "name": "Roundcube.005",
      "skin": 2
    },
    {
      "mesh": 5,
      "name": "Roundcube.006",
      "skin": 2
    },
    {
      "children": [20, 21],
      "mesh": 6,
      "name": "Roundcube",
      "skin": 2
    },
    {
      "children": [22, 15, 19],
      "name": "Armature.008",
      "rotation": [0, 0, 0, 1],
      "translation": [
        -0.05719780921936035, 0.2767137289047241, 1.1755309104919434
      ]
    },
    {
      "children": [7, 11, 23],
      "name": "Bone",
      "translation": [
        0.05719780921936035, -0.2767137289047241, -1.1755309104919434
      ]
    },
    {
      "children": [24],
      "name": "Armature"
    }
  ],
  "materials": [
    {
      "doubleSided": true,
      "name": "Material.004",
      "pbrMetallicRoughness": {
        "baseColorFactor": [0, 0, 0, 1],
        "metallicFactor": 0,
        "roughnessFactor": 0.5
      }
    },
    {
      "doubleSided": true,
      "name": "Material.001",
      "pbrMetallicRoughness": {
        "baseColorFactor": [
          0.8000000715255737, 0.10802294313907623, 0.11533049494028091, 1
        ],
        "metallicFactor": 0,
        "roughnessFactor": 0.5
      }
    },
    {
      "doubleSided": true,
      "name": "Material.002",
      "pbrMetallicRoughness": {
        "baseColorFactor": [
          0.8000000715255737, 0.10802294313907623, 0.11533049494028091, 1
        ],
        "metallicFactor": 0,
        "roughnessFactor": 0.5
      }
    },
    {
      "doubleSided": true,
      "name": "Material.003",
      "pbrMetallicRoughness": {
        "baseColorFactor": [0, 0, 0, 1],
        "metallicFactor": 0,
        "roughnessFactor": 0.5
      }
    }
  ],
  "meshes": [
    {
      "name": "Roundcube.008",
      "primitives": [
        {
          "attributes": {
            "POSITION": 0,
            "NORMAL": 1,
            "JOINTS_0": 2,
            "WEIGHTS_0": 3
          },
          "indices": 4,
          "material": 0
        }
      ]
    },
    {
      "name": "Roundcube.009",
      "primitives": [
        {
          "attributes": {
            "POSITION": 6,
            "NORMAL": 7,
            "JOINTS_0": 8,
            "WEIGHTS_0": 9
          },
          "indices": 10,
          "material": 1
        }
      ]
    },
    {
      "name": "Roundcube.004",
      "primitives": [
        {
          "attributes": {
            "POSITION": 11,
            "NORMAL": 12,
            "JOINTS_0": 13,
            "WEIGHTS_0": 14
          },
          "indices": 4,
          "material": 0
        }
      ]
    },
    {
      "name": "Roundcube.002",
      "primitives": [
        {
          "attributes": {
            "POSITION": 16,
            "NORMAL": 17,
            "JOINTS_0": 18,
            "WEIGHTS_0": 19
          },
          "indices": 10,
          "material": 1
        }
      ]
    },
    {
      "name": "Roundcube.005",
      "primitives": [
        {
          "attributes": {
            "POSITION": 20,
            "NORMAL": 21,
            "COLOR_0": 22,
            "JOINTS_0": 23,
            "WEIGHTS_0": 24
          },
          "indices": 25,
          "material": 2
        }
      ]
    },
    {
      "name": "Roundcube.006",
      "primitives": [
        {
          "attributes": {
            "POSITION": 27,
            "NORMAL": 28,
            "COLOR_0": 29,
            "JOINTS_0": 30,
            "WEIGHTS_0": 31
          },
          "indices": 32,
          "material": 2
        }
      ]
    },
    {
      "name": "Roundcube",
      "primitives": [
        {
          "attributes": {
            "POSITION": 33,
            "NORMAL": 34,
            "JOINTS_0": 35,
            "WEIGHTS_0": 36
          },
          "indices": 37,
          "material": 1
        },
        {
          "attributes": {
            "POSITION": 38,
            "NORMAL": 39,
            "JOINTS_0": 40,
            "WEIGHTS_0": 41
          },
          "indices": 42,
          "material": 3
        }
      ]
    }
  ],
  "skins": [
    {
      "inverseBindMatrices": 5,
      "joints": [4],
      "name": "Armature.001"
    },
    {
      "inverseBindMatrices": 15,
      "joints": [8],
      "name": "Armature.005"
    },
    {
      "inverseBindMatrices": 26,
      "joints": [15, 14, 12, 13, 19, 18, 16, 17],
      "name": "Armature.008"
    }
  ],
  "accessors": [
    {
      "bufferView": 0,
      "componentType": 5126,
      "count": 384,
      "max": [-0.18035054206848145, 1.2766999006271362, -0.6840288043022156],
      "min": [-0.5171360969543457, 0.9399142861366272, -1.020814299583435],
      "type": "VEC3"
    },
    {
      "bufferView": 1,
      "componentType": 5126,
      "count": 384,
      "type": "VEC3"
    },
    {
      "bufferView": 2,
      "componentType": 5121,
      "count": 384,
      "type": "VEC4"
    },
    {
      "bufferView": 3,
      "componentType": 5126,
      "count": 384,
      "type": "VEC4"
    },
    {
      "bufferView": 4,
      "componentType": 5123,
      "count": 576,
      "type": "SCALAR"
    },
    {
      "bufferView": 5,
      "componentType": 5126,
      "count": 1,
      "type": "MAT4"
    },
    {
      "bufferView": 6,
      "componentType": 5126,
      "count": 384,
      "max": [0.05232754349708557, 1.4717625379562378, -0.8014512062072754],
      "min": [-0.6841412782669067, 0.7352938055992126, -1.5379199981689453],
      "type": "VEC3"
    },
    {
      "bufferView": 7,
      "componentType": 5126,
      "count": 384,
      "type": "VEC3"
    },
    {
      "bufferView": 8,
      "componentType": 5121,
      "count": 384,
      "type": "VEC4"
    },
    {
      "bufferView": 9,
      "componentType": 5126,
      "count": 384,
      "type": "VEC4"
    },
    {
      "bufferView": 10,
      "componentType": 5123,
      "count": 576,
      "type": "SCALAR"
    },
    {
      "bufferView": 11,
      "componentType": 5126,
      "count": 384,
      "max": [0.5761818885803223, 1.2766997814178467, -0.684028685092926],
      "min": [0.239396333694458, 0.9399141669273376, -1.0208141803741455],
      "type": "VEC3"
    },
    {
      "bufferView": 12,
      "componentType": 5126,
      "count": 384,
      "type": "VEC3"
    },
    {
      "bufferView": 13,
      "componentType": 5121,
      "count": 384,
      "type": "VEC4"
    },
    {
      "bufferView": 14,
      "componentType": 5126,
      "count": 384,
      "type": "VEC4"
    },
    {
      "bufferView": 15,
      "componentType": 5126,
      "count": 1,
      "type": "MAT4"
    },
    {
      "bufferView": 16,
      "componentType": 5126,
      "count": 384,
      "max": [0.8088600635528564, 1.4717624187469482, -0.8014510869979858],
      "min": [0.07239124178886414, 0.7352936863899231, -1.5379198789596558],
      "type": "VEC3"
    },
    {
      "bufferView": 17,
      "componentType": 5126,
      "count": 384,
      "type": "VEC3"
    },
    {
      "bufferView": 18,
      "componentType": 5121,
      "count": 384,
      "type": "VEC4"
    },
    {
      "bufferView": 19,
      "componentType": 5126,
      "count": 384,
      "type": "VEC4"
    },
    {
      "bufferView": 20,
      "componentType": 5126,
      "count": 326,
      "max": [-1.4129937887191772, -0.2253578007221222, 1.4738099575042725],
      "min": [-2.3792662620544434, -0.9460330009460449, 0.2952977418899536],
      "type": "VEC3"
    },
    {
      "bufferView": 21,
      "componentType": 5126,
      "count": 326,
      "type": "VEC3"
    },
    {
      "bufferView": 22,
      "componentType": 5123,
      "count": 326,
      "normalized": true,
      "type": "VEC4"
    },
    {
      "bufferView": 23,
      "componentType": 5121,
      "count": 326,
      "type": "VEC4"
    },
    {
      "bufferView": 24,
      "componentType": 5126,
      "count": 326,
      "type": "VEC4"
    },
    {
      "bufferView": 25,
      "componentType": 5123,
      "count": 486,
      "type": "SCALAR"
    },
    {
      "bufferView": 26,
      "componentType": 5126,
      "count": 8,
      "type": "MAT4"
    },
    {
      "bufferView": 27,
      "componentType": 5126,
      "count": 326,
      "max": [2.493661403656006, -0.22535783052444458, 1.4738099575042725],
      "min": [1.5273889303207397, -0.9460330605506897, 0.2952977418899536],
      "type": "VEC3"
    },
    {
      "bufferView": 28,
      "componentType": 5126,
      "count": 326,
      "type": "VEC3"
    },
    {
      "bufferView": 29,
      "componentType": 5123,
      "count": 326,
      "normalized": true,
      "type": "VEC4"
    },
    {
      "bufferView": 30,
      "componentType": 5121,
      "count": 326,
      "type": "VEC4"
    },
    {
      "bufferView": 31,
      "componentType": 5126,
      "count": 326,
      "type": "VEC4"
    },
    {
      "bufferView": 32,
      "componentType": 5123,
      "count": 486,
      "type": "SCALAR"
    },
    {
      "bufferView": 33,
      "componentType": 5126,
      "count": 1255,
      "max": [2.2592599391937256, 0.9273799061775208, 0.6540447473526001],
      "min": [-2.144864320755005, -1.9114532470703125, -3.475813388824463],
      "type": "VEC3"
    },
    {
      "bufferView": 34,
      "componentType": 5126,
      "count": 1255,
      "type": "VEC3"
    },
    {
      "bufferView": 35,
      "componentType": 5121,
      "count": 1255,
      "type": "VEC4"
    },
    {
      "bufferView": 36,
      "componentType": 5126,
      "count": 1255,
      "type": "VEC4"
    },
    {
      "bufferView": 37,
      "componentType": 5123,
      "count": 1860,
      "type": "SCALAR"
    },
    {
      "bufferView": 38,
      "componentType": 5126,
      "count": 24,
      "max": [0.309394896030426, 0.003160834312438965, 0.08401989936828613],
      "min": [-0.19499917328357697, -0.07965388894081116, -0.1439284086227417],
      "type": "VEC3"
    },
    {
      "bufferView": 39,
      "componentType": 5126,
      "count": 24,
      "type": "VEC3"
    },
    {
      "bufferView": 40,
      "componentType": 5121,
      "count": 24,
      "type": "VEC4"
    },
    {
      "bufferView": 41,
      "componentType": 5126,
      "count": 24,
      "type": "VEC4"
    },
    {
      "bufferView": 42,
      "componentType": 5123,
      "count": 36,
      "type": "SCALAR"
    }
  ],
  "bufferViews": [
    {
      "buffer": 0,
      "byteLength": 4608,
      "byteOffset": 0
    },
    {
      "buffer": 0,
      "byteLength": 4608,
      "byteOffset": 4608
    },
    {
      "buffer": 0,
      "byteLength": 1536,
      "byteOffset": 9216
    },
    {
      "buffer": 0,
      "byteLength": 6144,
      "byteOffset": 10752
    },
    {
      "buffer": 0,
      "byteLength": 1152,
      "byteOffset": 16896
    },
    {
      "buffer": 0,
      "byteLength": 64,
      "byteOffset": 18048
    },
    {
      "buffer": 0,
      "byteLength": 4608,
      "byteOffset": 18112
    },
    {
      "buffer": 0,
      "byteLength": 4608,
      "byteOffset": 22720
    },
    {
      "buffer": 0,
      "byteLength": 1536,
      "byteOffset": 27328
    },
    {
      "buffer": 0,
      "byteLength": 6144,
      "byteOffset": 28864
    },
    {
      "buffer": 0,
      "byteLength": 1152,
      "byteOffset": 35008
    },
    {
      "buffer": 0,
      "byteLength": 4608,
      "byteOffset": 36160
    },
    {
      "buffer": 0,
      "byteLength": 4608,
      "byteOffset": 40768
    },
    {
      "buffer": 0,
      "byteLength": 1536,
      "byteOffset": 45376
    },
    {
      "buffer": 0,
      "byteLength": 6144,
      "byteOffset": 46912
    },
    {
      "buffer": 0,
      "byteLength": 64,
      "byteOffset": 53056
    },
    {
      "buffer": 0,
      "byteLength": 4608,
      "byteOffset": 53120
    },
    {
      "buffer": 0,
      "byteLength": 4608,
      "byteOffset": 57728
    },
    {
      "buffer": 0,
      "byteLength": 1536,
      "byteOffset": 62336
    },
    {
      "buffer": 0,
      "byteLength": 6144,
      "byteOffset": 63872
    },
    {
      "buffer": 0,
      "byteLength": 3912,
      "byteOffset": 70016
    },
    {
      "buffer": 0,
      "byteLength": 3912,
      "byteOffset": 73928
    },
    {
      "buffer": 0,
      "byteLength": 2608,
      "byteOffset": 77840
    },
    {
      "buffer": 0,
      "byteLength": 1304,
      "byteOffset": 80448
    },
    {
      "buffer": 0,
      "byteLength": 5216,
      "byteOffset": 81752
    },
    {
      "buffer": 0,
      "byteLength": 972,
      "byteOffset": 86968
    },
    {
      "buffer": 0,
      "byteLength": 512,
      "byteOffset": 87940
    },
    {
      "buffer": 0,
      "byteLength": 3912,
      "byteOffset": 88452
    },
    {
      "buffer": 0,
      "byteLength": 3912,
      "byteOffset": 92364
    },
    {
      "buffer": 0,
      "byteLength": 2608,
      "byteOffset": 96276
    },
    {
      "buffer": 0,
      "byteLength": 1304,
      "byteOffset": 98884
    },
    {
      "buffer": 0,
      "byteLength": 5216,
      "byteOffset": 100188
    },
    {
      "buffer": 0,
      "byteLength": 972,
      "byteOffset": 105404
    },
    {
      "buffer": 0,
      "byteLength": 15060,
      "byteOffset": 106376
    },
    {
      "buffer": 0,
      "byteLength": 15060,
      "byteOffset": 121436
    },
    {
      "buffer": 0,
      "byteLength": 5020,
      "byteOffset": 136496
    },
    {
      "buffer": 0,
      "byteLength": 20080,
      "byteOffset": 141516
    },
    {
      "buffer": 0,
      "byteLength": 3720,
      "byteOffset": 161596
    },
    {
      "buffer": 0,
      "byteLength": 288,
      "byteOffset": 165316
    },
    {
      "buffer": 0,
      "byteLength": 288,
      "byteOffset": 165604
    },
    {
      "buffer": 0,
      "byteLength": 96,
      "byteOffset": 165892
    },
    {
      "buffer": 0,
      "byteLength": 384,
      "byteOffset": 165988
    },
    {
      "buffer": 0,
      "byteLength": 72,
      "byteOffset": 166372
    }
  ],
  "buffers": [
    {
      "byteLength": 166444,
      "uri": "data:application/octet-stream;base64,"
    }
  ]
}
