{
    "asset" : {
        "generator" : "Khronos glTF Blender I/O v1.7.33",
        "version" : "2.0"
    },
    "scene" : 0,
    "scenes" : [
        {
            "name" : "Scene",
            "nodes" : [
                0
            ]
        }
    ],
    "nodes" : [
        {
            "mesh" : 0,
            "name" : "Cylinder",
            "rotation" : [
                0,
                0,
                -0.7071067690849304,
                0.7071068286895752
            ],
            "scale" : [
                4.5410003662109375,
                4.5410003662109375,
                4.5410003662109375
            ],
            "translation" : [
                0,
                1.3779308795928955,
                0
            ]
        }
    ],
    "meshes" : [
        {
            "name" : "Cylinder",
            "primitives" : [
                {
                    "attributes" : {
                        "POSITION" : 0,
                        "NORMAL" : 1,
                        "TEXCOORD_0" : 2
                    },
                    "indices" : 3
                }
            ]
        }
    ],
    "accessors" : [
        {
            "bufferView" : 0,
            "componentType" : 5126,
            "count" : 210,
            "max" : [
                0.7899432182312012,
                -0.8799999356269836,
                1
            ],
            "min" : [
                -0.4951079785823822,
                -1,
                -1
            ],
            "type" : "VEC3"
        },
        {
            "bufferView" : 1,
            "componentType" : 5126,
            "count" : 210,
            "type" : "VEC3"
        },
        {
            "bufferView" : 2,
            "componentType" : 5126,
            "count" : 210,
            "type" : "VEC2"
        },
        {
            "bufferView" : 3,
            "componentType" : 5123,
            "count" : 384,
            "type" : "SCALAR"
        }
    ],
    "bufferViews" : [
        {
            "buffer" : 0,
            "byteLength" : 2520,
            "byteOffset" : 0
        },
        {
            "buffer" : 0,
            "byteLength" : 2520,
            "byteOffset" : 2520
        },
        {
            "buffer" : 0,
            "byteLength" : 1680,
            "byteOffset" : 5040
        },
        {
            "buffer" : 0,
            "byteLength" : 768,
            "byteOffset" : 6720
        }
    ],
    "buffers" : [
        {
            "byteLength" : 7488,
            "uri" : "data:application/octet-stream;base64,"
        }
    ]
}
